
<svg width="2667" height="2667" viewBox="0 0 2667 2667" fill="none" xmlns="http://www.w3.org/2000/svg">
<path d="M288.732 1202C302.868 1200.68 315.503 1215.71 313.111 1229.72C310.684 1243.75 295.391 1253.61 281.32 1251.47C267.281 1249.36 255.959 1236.72 253.795 1222.68C250.331 1200.64 266.619 1180.23 284.669 1167.13C308.223 1150.08 336.695 1139.87 365.729 1138.07C317.451 1153.09 294.3 1185.47 288.732 1202Z" fill="#F5DEB3"/>
<path d="M338.472 1059.44C343.152 1070.03 336.131 1084.41 324.689 1086.17C332.373 1098.12 357.087 1119.11 398.216 1121.44C374.908 1125.77 350.393 1123.33 328.419 1114.53C311.547 1107.76 294.652 1094.87 292.977 1076.77C291.949 1065.27 298.359 1053.05 309.049 1048.59C319.741 1044.12 333.756 1048.85 338.472 1059.44Z" fill="#F5DEB3"/>
<path d="M445.671 1482.97C454.665 1480.28 465.059 1486.39 467.931 1495.35C470.836 1504.31 466.721 1514.72 459.072 1520.16C447.049 1528.76 430.151 1525.15 417.063 1518.35C399.996 1509.44 385.528 1495.63 375.851 1479C399.067 1503.09 425.075 1507.2 436.479 1505.61C431.531 1497.65 436.676 1485.71 445.671 1482.97Z" fill="#F5DEB3"/>
<path d="M541.529 1293.64C527.255 1299.13 516.627 1313.17 515.276 1328.41C514.925 1332.61 514.993 1337.28 512.129 1340.31C506.224 1346.6 495.977 1339.57 491.305 1332.32C476.768 1309.73 472.085 1282.25 474.653 1255.32C466.497 1279.93 457.177 1305.29 452.771 1321.28C448.689 1336.15 441.153 1353.39 425.889 1355.48C423.293 1355.81 420.455 1355.75 418.409 1357.39C416.011 1359.25 415.703 1362.72 415.572 1365.77C414.633 1386.4 413.655 1407.53 405.823 1426.64C399.195 1442.87 384.313 1463.57 367.5 1471.28C367 1449 368.992 1426.09 373.816 1403.24C376.501 1390.51 380.207 1377.83 384.545 1365.2C388.979 1352.59 394.323 1340.11 400.289 1327.75C412.203 1303 427.243 1279.04 443.889 1255.52C452.28 1243.8 461.12 1232.2 470.297 1220.68C479.492 1209.16 489.137 1197.53 498.64 1185.83C517.731 1162.4 537.101 1138.64 556.704 1114.59C559.8 1110.77 562.851 1107.03 565.935 1103.23C563.873 1110.05 562.217 1117.35 560.383 1124.93C556.417 1144.53 553.879 1166.49 554.111 1189.63C554.627 1212.75 557.875 1234.63 562.472 1254.09C565.14 1263.73 567.473 1272.95 570.76 1281.23C572.325 1285.39 573.617 1289.48 575.28 1293.25C576.983 1297.01 578.617 1300.61 580.177 1304.05C583.108 1311.01 586.737 1316.83 589.633 1322.05C591.136 1324.64 592.455 1327.09 593.843 1329.24C595.316 1331.33 596.663 1333.25 597.875 1334.97C602.78 1341.83 605.756 1345.37 606.36 1344.97C606.964 1344.57 605.148 1340.25 601.391 1332.88C600.436 1331.05 599.373 1329.01 598.213 1326.79C597.109 1324.53 596.068 1321.99 594.843 1319.33C592.501 1313.96 589.416 1308.07 586.999 1301.09C585.677 1297.67 584.293 1294.08 582.851 1290.35C581.431 1286.6 580.369 1282.55 579.027 1278.45C576.184 1270.31 574.245 1261.29 571.909 1251.89C567.976 1232.93 565.128 1211.8 564.624 1189.45C564.405 1167.11 566.568 1145.89 569.887 1126.81C571.917 1117.35 573.563 1108.27 576.141 1100.04C577.351 1095.91 578.28 1091.81 579.579 1088.04C579.907 1087.09 580.22 1086.2 580.541 1085.28C582.319 1083.09 584.121 1080.88 585.895 1078.69C595.543 1066.72 605.227 1055.33 614.54 1042.52C619.023 1036.51 623.279 1030.33 627.305 1024.03C621.363 1051.4 620.271 1075.31 625.039 1101.63C628.427 1120.31 635.661 1140.03 651.843 1149.93C668.06 1159.88 694.436 1153.16 697.639 1134.47C705.951 1137.93 709.587 1147.64 711.128 1156.48C716.316 1186.35 706.768 1218.37 686.119 1240.49C670.88 1256.85 646.081 1267.87 626.149 1257.79C650.705 1293.91 656.797 1341.97 642.057 1383.11C640.873 1386.39 639.444 1389.77 636.657 1391.93C633.872 1394.08 630.152 1394.57 626.611 1394.76C601.155 1396.05 575.38 1384.84 558.961 1365.32C542.576 1345.84 535.929 1318.52 541.529 1293.64Z" fill="#F5DEB3"/>
<path d="M440.524 764.787C437.24 769.04 434.263 773.507 431.68 778.147C429.155 782.653 427.047 787.32 425.265 792.053C424.748 792.653 424.231 793.213 423.713 793.813C412.583 806.68 401.471 822 389.081 837.813C376.671 853.6 363.829 868.28 349.955 879.56C336.145 890.854 321.737 898.587 308.871 902.827C295.968 907.054 284.841 907.92 277.348 907.347C273.587 907.027 270.715 906.6 268.804 906.013C266.889 905.493 265.925 905.054 265.972 904.694C266.019 904.334 267.071 904.08 268.995 903.894C270.913 903.8 273.717 903.56 277.279 903.253C284.391 902.573 294.579 900.653 306.287 895.853C317.969 891.027 331.047 883.173 343.717 872.147C356.416 861.173 368.583 846.893 380.815 831.307C393.055 815.693 404.541 800.347 416.475 787.373C424.472 778.627 432.609 771.04 440.524 764.787ZM586.208 2086.25C560.733 2046.87 580.207 2014.04 597.953 1995.4C611.847 1980.8 630.673 1971.56 644.428 1956.8C673.172 1926.09 672.277 1872.45 642.553 1842.71C665.111 1831.51 670.871 1800 661.281 1776.72C651.692 1753.48 631.149 1736.76 611.013 1721.71C628.563 1705.76 621.107 1674.51 602.509 1659.84C596.833 1655.39 590.587 1652.04 583.948 1649.49C588.485 1647.68 592.848 1645.57 597.073 1643.19C644.255 1616.61 674.835 1562.89 673.559 1508.77C673.041 1486.29 667.267 1463.64 654.591 1445.07C641.915 1426.53 621.98 1412.49 599.751 1409.29C585.676 1407.28 568.077 1412.23 564.705 1426.04C540.137 1417.32 510.303 1426.79 495.304 1448.12C480.269 1469.41 481.381 1500.68 497.864 1520.89C498.149 1507.51 515.751 1498.09 527.048 1505.29C542.075 1514.88 536.305 1538.95 523.969 1551.77C499.827 1576.81 458.219 1581.77 427.651 1565.23C399.404 1549.92 377.027 1516.16 367.531 1472.25C367.589 1474.49 367.643 1476.73 367.751 1478.96C368.979 1503.6 373.184 1527.36 381.148 1548.8C389.023 1570.2 400.596 1589.44 415.412 1604.05C430.223 1618.68 448.187 1629 466.475 1634.15C484.776 1639.33 503.435 1639.19 519.611 1633.95C535.856 1628.72 549.609 1619.11 560.356 1608.17C571.189 1597.21 578.981 1584.8 584.531 1572.75C590.02 1560.63 593.052 1548.72 593.517 1537.96C594.06 1527.17 592.012 1517.68 588.548 1510.16C585.147 1502.57 580.581 1496.99 576.417 1493.08C572.237 1489.13 568.385 1486.87 565.743 1485.45C563.099 1484.03 561.649 1483.33 561.76 1482.93C561.84 1482.63 563.487 1482.63 566.547 1483.45C569.596 1484.28 574.092 1486.07 579.123 1489.81C584.131 1493.53 589.724 1499.23 594.14 1507.36C598.632 1515.43 601.661 1526.12 601.701 1538.11C601.844 1550.12 599.116 1563.33 593.753 1576.67C588.32 1589.96 580.396 1603.76 568.892 1616.25C557.475 1628.69 542.451 1640.04 523.868 1646.63C514.977 1649.8 505.353 1651.57 495.447 1652C499.687 1654.55 504.137 1657.45 508.743 1660.84C515.745 1665.85 522.948 1671.99 530.307 1678.97C537.483 1686.13 544.905 1694.07 551.744 1703.2C558.551 1712.33 565.305 1722.27 571 1733.28C576.769 1744.24 581.875 1756.04 585.967 1768.49C589.925 1780.99 592.661 1793.48 594.412 1805.64C596.257 1817.79 596.649 1829.65 596.617 1840.85C596.561 1852.09 595.412 1862.71 594.105 1872.55C592.54 1882.36 590.705 1891.43 588.46 1899.55C586.307 1907.69 583.891 1914.92 581.568 1921.17C580.351 1924.28 579.296 1927.2 578.2 1929.83C577.049 1932.44 575.997 1934.83 575.051 1936.97C573.228 1941.31 571.403 1944.47 570.375 1946.71C569.343 1948.81 568.871 1949.79 568.72 1950.09C568.867 1949.79 569.329 1948.81 570.336 1946.69C571.327 1944.43 573.077 1941.23 574.756 1936.85C575.621 1934.68 576.584 1932.25 577.637 1929.61C578.624 1926.95 579.552 1923.99 580.619 1920.84C582.643 1914.52 584.671 1907.23 586.341 1899.04C588.105 1890.89 589.367 1881.83 590.287 1872.11C590.948 1862.35 591.381 1851.91 590.701 1840.97C589.999 1830.07 588.849 1818.63 586.307 1807.04C583.86 1795.45 580.491 1783.67 576.055 1772C571.484 1760.37 566.076 1749.45 560.188 1739.31C554.377 1729.11 547.689 1719.95 541.109 1711.45C534.499 1702.96 527.464 1695.52 520.787 1688.67C513.927 1682.01 507.331 1676 500.985 1670.88C494.697 1665.69 488.759 1661.28 483.465 1657.49C480.801 1655.61 478.321 1653.87 476.037 1652.25C475.253 1651.73 474.531 1651.24 473.795 1650.76C470.063 1650.17 466.332 1649.48 462.625 1648.51C441.647 1643.11 421.244 1631.96 404.112 1615.71C386.949 1599.39 373.839 1578.25 364.836 1554.96C355.768 1531.65 350.929 1506.16 349.288 1479.97C347.681 1453.76 349.372 1426.55 354.839 1399.33C357.569 1385.72 361.389 1372.17 365.884 1358.72C370.473 1345.29 376.012 1332.08 382.193 1319.04C394.537 1292.93 410.044 1267.92 427.089 1243.6C435.675 1231.48 444.691 1219.55 454.017 1207.75C461.112 1198.8 468.304 1189.99 475.519 1181.12C469.488 1184.91 462.827 1188.59 455.553 1191.84C436.445 1200.45 417.023 1203.31 403.288 1202.2C396.376 1201.75 391.016 1200.47 387.256 1199.2C385.329 1198.51 383.848 1197.52 383.111 1196.61C382.356 1195.71 382.276 1195.03 382.525 1194.8C383.116 1194.32 384.685 1195.23 388.073 1195.19C391.613 1195.13 396.937 1195.27 403.289 1194.77C416.04 1193.93 433.428 1190.25 451.285 1182.23C468.869 1174.36 483.713 1164.55 494.735 1157.47C509.811 1138.92 525.005 1120.24 540.392 1101.31C546.08 1094.32 551.701 1087.43 557.348 1080.49C551.572 1084.47 545.184 1088.4 538.084 1091.91C523.365 1099.2 505.464 1105.15 485.936 1105.31C476.228 1105.48 466.692 1104.13 457.812 1101.59C448.972 1098.91 440.727 1095.04 433.839 1089.93C419.747 1079.73 411.86 1065.44 408.785 1053.08C405.612 1040.56 407.064 1029.88 409.333 1023.23C411.701 1016.52 414.363 1013.55 414.871 1013.83C415.643 1014.2 414.3 1017.75 413.312 1024.19C412.401 1030.59 412.247 1040.13 415.917 1050.97C419.511 1061.72 427.107 1073.73 439.409 1082C451.697 1090.44 468.288 1095.07 485.813 1094.8C503.383 1094.67 519.831 1089.55 533.897 1083.17C540.956 1079.97 547.428 1076.35 553.344 1072.68C559.277 1069.04 564.645 1065.33 569.461 1061.8C572.323 1059.72 587.527 1049.25 602.693 1033.79C606.153 1029.69 609.841 1024.97 613.869 1019.79C615.749 1017.09 617.709 1014.29 619.749 1011.37C620.761 1009.89 621.793 1008.4 622.845 1006.87C623.815 1005.29 624.803 1003.68 625.808 1002.04C634.005 989.013 642.157 973.28 648.891 954.813C655.679 936.387 660.868 915.107 662.311 891.573C662.863 885.707 662.636 879.68 662.696 873.56C662.556 871.44 662.441 869.307 662.316 867.16C666.731 882.24 668.748 900.6 666.469 920.813C665.276 931.747 662.948 943.16 659.475 954.76C656.093 966.36 651.307 978.04 646.304 990.747C641.345 1003.43 636.673 1016.52 634.32 1030.25C632.084 1043.99 632.203 1057.93 635.955 1070.89C637.813 1077.35 640.571 1083.49 644.177 1088.93C647.713 1094.31 652.295 1099.32 657.689 1102.92C663.044 1106.55 669.539 1109.05 676.332 1109.09C679.624 1109.12 683.145 1108.57 686.241 1107.28C689.319 1106.03 691.977 1104.28 694.217 1102.29C703.015 1094.24 705.469 1082.32 701.913 1073.36C700.159 1068.93 697.28 1065.64 694.32 1063.39C691.337 1061.12 688.232 1059.81 685.384 1059.09C679.64 1057.69 675.013 1058.64 672.349 1059.93C669.639 1061.24 668.747 1062.68 669.032 1063.25C669.368 1063.97 670.845 1063.89 673.229 1064.08C675.588 1064.24 678.964 1064.81 682.552 1066.79C686.095 1068.65 689.853 1072.41 690.729 1076.99C691.233 1079.21 690.876 1081.76 689.907 1084.28C688.857 1086.79 687.008 1089.21 684.672 1090.88C683.489 1091.68 682.231 1092.28 680.972 1092.64C679.743 1093 678.475 1093.01 676.967 1092.88C674.092 1092.57 670.889 1091.17 667.851 1088.75C661.767 1083.95 656.952 1075.45 654.679 1065.91C652.333 1056.27 652.504 1045.12 654.601 1033.88C656.784 1022.57 661.039 1010.76 665.895 998.387C670.749 986.04 675.832 973.293 679.289 960.4C682.82 947.573 684.999 934.787 685.776 922.453C686.584 910.12 685.904 898.254 683.989 887.36C682.111 876.414 678.864 866.533 675.036 857.973C672.607 852.587 669.912 847.813 667.131 843.507C678.267 846.373 690.372 845.427 700.463 839.853C720.943 828.533 729.741 800.054 719.213 779.16C715.823 788.28 706.571 794.573 696.895 795.533C687.22 796.493 677.417 792.56 670.207 786.027C665.344 781.64 661.308 775.96 655.237 773.48C651.615 772 647.595 771.813 643.872 770.613C637.708 768.613 632.82 764.013 627.623 760.147C618.432 753.307 607.688 748.653 596.465 746.387C584.78 738.76 571.728 732.827 557.991 728.96C554.205 728.04 550.415 727.014 546.58 726.227C542.72 725.6 538.845 724.987 534.959 724.36C530.796 724.107 526.62 723.627 522.417 723.694C518.217 723.92 513.968 723.787 509.788 724.56C493.655 726.694 478.22 732.547 465.213 741.453C448.361 746.76 434.692 755.987 423.079 767.094C416.615 773.24 410.564 780.24 402.369 783.707C393.788 787.387 382.287 787.96 378.503 796.48C376.539 800.88 377.512 806.253 375.268 810.573C372.171 816.507 364.517 817.987 357.887 818.88C350.728 819.88 343.429 821.014 337.023 824.427C330.651 827.814 325.273 833.933 324.655 841.12C324.42 843.987 324.921 846.933 324.233 849.733C322.567 856.347 314.864 859.614 308.065 859.627C301.231 859.6 294.589 857.373 287.755 857.4C280.956 857.413 273.287 860.774 271.725 867.427C270.709 871.8 272.205 877.454 268.573 880.094C257.749 875.16 250.627 863.16 251.495 851.32C252.361 839.44 261.212 828.613 272.629 825.347C245.031 818.667 216.507 848.053 218.589 876.387C220.671 904.72 246.667 927.547 274.705 931.947C302.779 936.347 331.503 925.293 354.179 908.2C368.356 897.52 380.729 884.467 390.628 869.76C402.359 852.36 410.541 832.88 419.665 813.947C419.253 816.787 418.916 819.627 418.727 822.48C417.741 838.52 421.897 854.493 429.904 867.44C433.785 874.013 438.735 879.787 444.219 884.747C449.641 889.787 455.855 893.773 462.289 896.92C470.921 900.947 479.765 903.547 488.981 904.24C508.321 908.093 528.92 904.32 543.477 891.12C556.507 879.28 563.489 861.213 562.195 843.68C560.9 826.147 551.433 809.427 537.253 799C520.844 786.88 496.121 784.187 480.627 797.453C479.437 782.773 487.415 769.093 499.152 759.853C499.192 759.853 499.223 759.867 499.264 759.867C501.036 759.92 503.028 759.907 505.271 760.067C509.711 760.16 515.067 760.627 521.111 761.573C527.152 762.533 533.919 764.147 541.043 766.84C548.157 769.533 555.627 773.307 562.863 778.413C570.079 783.493 576.905 790.147 583.004 798.2C586.039 802.227 588.78 806.653 591.361 811.333C593.844 816.067 596.059 821.08 597.985 826.36C601.689 836.947 604.108 848.547 604.565 860.627C605.631 884.774 598.829 908.4 585.521 925C578.909 933.36 571.056 940.067 562.732 944.907C554.376 949.68 545.688 952.64 537.552 954.427C529.395 956.227 521.772 956.707 515.092 956.92C508.401 956.987 502.617 956.654 497.919 956.16C493.211 955.707 489.579 955.147 487.125 954.694C484.788 954.294 483.716 954.12 483.379 954.053C483.716 954.12 484.783 954.32 487.115 954.76C489.556 955.267 493.167 955.947 497.86 956.64C502.544 957.36 508.315 958.027 515.067 958.413C521.813 958.68 529.571 958.787 538.109 957.64C546.621 956.507 555.955 954.28 565.363 950.027C574.728 945.734 584.028 939.293 592.199 930.84C600.429 922.387 607.275 911.693 612.092 899.72C616.879 887.72 619.76 874.453 620.337 860.707C620.976 846.947 619.245 833.373 615.677 820.733C613.819 814.427 611.531 808.347 608.827 802.56C607.2 799.254 605.433 796.053 603.576 792.947C612.56 803.253 619.643 814.974 624.693 827.227C629.069 837.56 631.933 848.32 633.717 858.987C634.811 864.293 635.129 869.667 635.755 874.92C635.916 880.227 636.415 885.44 636.173 890.613C638.417 930.08 607.305 989.853 574.221 1015.24C560.633 1025.67 546.575 1035.87 530.165 1040.85C515.128 1045.47 498.293 1046.65 484.013 1040.03C469.732 1033.39 459.137 1017.41 462.347 1002.03C465.523 986.6 485.411 976.067 498.517 984.8C490.269 969.133 469.687 957.294 451.991 956.694C438.747 956.267 425.436 959.52 413.852 965.987C392.939 977.667 378.707 999.48 373.364 1022.83C370.092 1037.24 370.001 1052.65 375.392 1066.4C380.783 1080.15 392.147 1091.95 406.416 1095.79C400.972 1105.69 403.176 1119.2 411.491 1126.88C414.029 1129.21 417.064 1130.95 420.316 1132.03C392.684 1137.93 367.045 1152.97 348.785 1174.52C341.283 1183.36 334.745 1194.15 335.563 1205.68C336.345 1217.21 347.504 1228.39 358.64 1225.32C343.121 1241.52 329.76 1259.75 318.944 1279.43C313.003 1290.24 307.719 1302.25 309.407 1314.51C311.093 1326.71 322.461 1338.27 334.572 1335.84C322.067 1365.19 314.465 1398.97 320.133 1430.36C322.884 1445.59 334.459 1461.56 348.552 1469.81C346.027 1495.93 347.22 1521.53 352.801 1546.17C363.153 1591.97 392.592 1635.28 434.667 1654.8C438.249 1662.61 441.137 1669.47 443.479 1674.57C451.331 1691.73 457.032 1710.15 468.265 1725.35C479.497 1740.51 498.293 1752.16 516.727 1748.11C513.232 1764.05 509.7 1780.39 511.565 1796.6C513.467 1812.84 521.744 1829.24 536.371 1836.55C540.908 1838.83 545.979 1840.17 549.879 1843.39C556.737 1848.95 558.479 1858.95 556.76 1867.59C555.043 1876.27 550.459 1884.01 546.504 1891.91C531.683 1921.47 524.643 1955.27 529.003 1988.04C533.361 2020.81 560.405 2065.57 586.208 2086.25Z" fill="#F5DEB3"/>
<path d="M470.145 1368.95C463.797 1350.75 462.731 1330.72 467.115 1311.95C467.472 1345.47 483.624 1366.33 493.064 1373.01C494.915 1363.77 506.865 1358.61 515.301 1362.8C523.752 1367.01 527.107 1378.6 523.065 1387.13C519.053 1395.64 508.871 1400.43 499.545 1399.13C484.889 1397.13 475.031 1382.91 470.145 1368.95Z" fill="#F5DEB3"/>
<path d="M1202 288.742C1200.68 302.87 1215.71 315.5 1229.71 313.113C1243.75 310.682 1253.61 295.398 1251.46 281.315C1249.35 267.292 1236.71 255.966 1222.68 253.802C1200.64 250.333 1180.23 266.625 1167.13 284.666C1150.08 308.221 1139.86 336.698 1138.07 365.739C1153.1 317.457 1185.47 294.301 1202 288.742Z" fill="#F5DEB3"/>
<path d="M1059.44 338.471C1070.03 343.162 1084.41 336.14 1086.18 324.689C1098.12 332.381 1119.11 357.09 1121.44 398.217C1125.77 374.907 1123.33 350.402 1114.53 328.418C1107.77 311.547 1094.87 294.648 1076.77 292.972C1065.27 291.952 1053.05 298.363 1048.58 309.056C1044.11 319.75 1048.85 333.75 1059.44 338.471Z" fill="#F5DEB3"/>
<path d="M1482.98 445.664C1480.28 454.659 1486.39 465.059 1495.35 467.926C1504.31 470.835 1514.73 466.717 1520.17 459.072C1528.77 447.041 1525.15 430.148 1518.35 417.05C1509.44 399.988 1495.63 385.526 1479 375.843C1503.1 399.06 1507.21 425.075 1505.62 436.473C1497.65 431.526 1485.72 436.669 1482.98 445.664Z" fill="#F5DEB3"/>
<path d="M1293.65 541.533C1299.14 527.255 1313.18 516.631 1328.41 515.277C1332.62 514.924 1337.28 514.995 1340.31 512.131C1346.6 506.219 1339.58 495.977 1332.32 491.307C1309.74 476.761 1282.25 472.077 1255.32 474.645C1279.93 466.49 1305.3 457.179 1321.28 452.763C1336.15 448.685 1353.39 441.151 1355.48 425.886C1355.82 423.29 1355.75 420.454 1357.38 418.409C1359.26 416.01 1362.72 415.7 1365.77 415.573C1386.4 414.628 1407.54 413.654 1426.64 405.824C1442.87 399.193 1463.58 384.309 1471.28 367.491C1449 366.998 1426.09 368.987 1403.24 373.812C1390.51 376.493 1377.83 380.203 1365.2 384.548C1352.59 388.979 1340.11 394.326 1327.75 400.293C1303 412.201 1279.04 427.24 1255.52 443.888C1243.8 452.283 1232.2 461.115 1220.67 470.299C1209.16 479.484 1197.54 489.134 1185.83 498.643C1162.4 517.732 1138.64 537.103 1114.58 556.699C1110.78 559.803 1107.03 562.85 1103.23 565.926C1110.06 563.866 1117.35 562.216 1124.93 560.381C1144.53 556.417 1166.5 553.877 1189.63 554.103C1212.75 554.625 1234.63 557.87 1254.09 562.469C1263.74 565.136 1272.95 567.478 1281.23 570.765C1285.39 572.317 1289.49 573.615 1293.26 575.28C1297.01 576.973 1300.62 578.609 1304.05 580.175C1311.01 583.11 1316.83 586.736 1322.06 589.628C1324.64 591.138 1327.09 592.45 1329.24 593.847C1331.34 595.314 1333.25 596.654 1334.97 597.867C1341.83 602.777 1345.38 605.754 1344.97 606.361C1344.58 606.967 1340.26 605.147 1332.88 601.395C1331.05 600.435 1329.01 599.377 1326.79 598.206C1324.53 597.106 1321.99 596.062 1319.34 594.834C1313.96 592.492 1308.06 589.416 1301.1 586.99C1297.67 585.678 1294.08 584.295 1290.34 582.842C1286.6 581.431 1282.55 580.373 1278.46 579.019C1270.31 576.183 1261.29 574.25 1251.9 571.908C1232.94 567.972 1211.8 565.122 1189.46 564.628C1167.11 564.402 1145.89 566.561 1126.81 569.876C1117.35 571.908 1108.27 573.559 1100.04 576.141C1095.9 577.354 1091.82 578.285 1088.04 579.583C1087.1 579.907 1086.2 580.218 1085.28 580.542C1083.09 582.32 1080.88 584.126 1078.7 585.889C1066.72 595.54 1055.33 605.218 1042.52 614.543C1036.51 619.016 1030.33 623.277 1024.02 627.298C1051.39 621.358 1075.31 620.272 1101.63 625.04C1120.3 628.426 1140.03 635.664 1149.94 651.846C1159.88 668.057 1153.16 694.439 1134.47 697.642C1137.94 705.952 1147.64 709.578 1156.48 711.13C1186.35 716.307 1218.38 706.77 1240.5 686.116C1256.85 670.878 1267.86 646.076 1257.78 626.141C1293.91 650.703 1341.98 656.798 1383.11 642.055C1386.39 640.87 1389.78 639.445 1391.94 636.651C1394.08 633.872 1394.58 630.147 1394.76 626.606C1396.06 601.155 1384.84 575.379 1365.32 558.956C1345.84 542.577 1318.52 535.932 1293.65 541.533Z" fill="#F5DEB3"/>
<path d="M787.373 416.481C800.343 404.546 815.691 393.062 831.306 380.826C846.886 368.591 861.168 356.43 872.147 343.728C883.164 331.057 891.03 317.979 895.852 306.3C900.648 294.59 902.563 284.399 903.247 277.289C903.557 273.726 903.8 270.93 903.895 269.006C904.068 267.082 904.33 266.03 904.69 265.985C905.05 265.94 905.493 266.902 906.006 268.811C906.598 270.72 907.023 273.591 907.341 277.364C907.91 284.85 907.052 295.973 902.823 308.885C898.582 321.752 890.845 336.152 879.559 349.966C868.281 363.841 853.603 376.678 837.804 389.094C821.991 401.48 806.671 412.588 793.811 423.727C793.21 424.238 792.649 424.764 792.056 425.275C787.31 427.049 782.655 429.168 778.148 431.693C773.501 434.264 769.038 437.255 764.778 440.532C771.043 432.61 778.623 424.478 787.373 416.481ZM1988.03 529.008C1955.27 524.649 1921.46 531.699 1891.91 546.52C1884 550.473 1876.26 555.058 1867.59 556.771C1858.94 558.485 1848.95 556.741 1843.39 549.887C1840.15 545.994 1838.82 540.913 1836.55 536.373C1829.24 521.748 1812.83 513.48 1796.59 511.571C1780.39 509.707 1764.05 513.24 1748.08 516.742C1752.16 498.298 1740.49 479.509 1725.34 468.28C1710.15 457.037 1691.73 451.34 1674.55 443.493C1669.45 441.148 1662.6 438.262 1654.8 434.67C1635.27 392.596 1591.97 363.164 1546.17 352.807C1521.53 347.231 1495.93 346.028 1469.81 348.554C1461.55 334.469 1445.58 322.895 1430.35 320.144C1398.97 314.477 1365.18 322.083 1335.84 334.589C1338.26 322.474 1326.71 311.11 1314.5 309.411C1302.25 307.728 1290.24 313.019 1279.42 318.956C1259.74 329.764 1241.52 343.127 1225.31 358.655C1228.38 347.516 1217.21 336.348 1205.67 335.566C1194.14 334.755 1183.36 341.293 1174.52 348.794C1152.97 367.057 1137.93 392.701 1132.03 420.329C1130.95 417.068 1129.21 414.031 1126.87 411.506C1119.2 403.178 1105.69 400.984 1095.78 406.425C1091.95 392.16 1080.15 380.796 1066.4 375.4C1052.65 370.004 1037.23 370.094 1022.82 373.371C999.483 378.722 977.658 392.942 965.982 413.866C959.523 425.44 956.265 438.758 956.689 452.001C957.289 469.693 969.129 490.271 984.792 498.524C976.065 485.416 986.592 465.529 1002.02 462.358C1017.42 459.141 1033.38 469.738 1040.02 484.018C1046.65 498.298 1045.46 515.134 1040.85 530.18C1035.87 546.58 1025.66 560.649 1015.23 574.223C989.843 607.308 930.073 638.423 890.603 636.183C885.433 636.424 880.217 635.928 874.919 635.762C869.668 635.131 864.291 634.815 858.987 633.733C848.311 631.944 837.55 629.073 827.227 624.699C814.977 619.648 803.244 612.569 792.948 603.58C796.054 605.444 799.245 607.202 802.561 608.841C808.339 611.531 814.421 613.831 820.727 615.68C833.376 619.258 846.938 620.986 860.699 620.34C874.456 619.769 887.72 616.883 899.715 612.103C911.694 607.277 922.389 600.438 930.841 592.201C939.296 584.039 945.731 574.734 950.027 565.369C954.284 555.96 956.506 546.625 957.641 538.117C958.779 529.579 958.67 521.823 958.415 515.074C958.029 508.324 957.36 502.552 956.632 497.862C955.947 493.173 955.263 489.565 954.755 487.13C954.316 484.785 954.116 483.718 954.053 483.387C954.11 483.733 954.292 484.8 954.692 487.13C955.136 489.58 955.699 493.218 956.154 497.922C956.652 502.627 956.984 508.415 956.91 515.104C956.707 521.778 956.223 529.399 954.422 537.561C952.632 545.693 949.683 554.381 944.897 562.739C940.066 571.066 933.353 578.913 924.994 585.527C908.394 598.83 884.763 605.639 860.625 604.572C848.547 604.121 836.94 601.701 826.353 597.988C821.08 596.064 816.058 593.854 811.328 591.374C806.656 588.789 802.227 586.053 798.198 583.016C790.144 576.914 783.488 570.089 778.407 562.874C773.302 555.629 769.531 548.158 766.842 541.048C764.143 533.923 762.535 527.159 761.569 521.116C760.623 515.074 760.154 509.722 760.062 505.273C759.905 503.033 759.92 501.049 759.858 499.275C759.856 499.23 759.856 499.2 759.853 499.155C769.095 487.415 782.766 479.449 797.45 480.636C784.188 496.134 786.879 520.861 798.999 537.26C809.419 551.435 826.143 560.905 843.679 562.198C861.215 563.49 879.276 556.516 891.123 543.483C904.316 528.933 908.097 508.324 904.241 488.994C903.54 479.779 900.937 470.926 896.913 462.298C893.767 455.864 889.778 449.656 884.737 444.23C879.785 438.743 874.011 433.798 867.442 429.905C854.486 421.908 838.511 417.744 822.483 418.736C819.624 418.931 816.78 419.262 813.945 419.668C832.878 410.544 852.359 402.367 869.76 390.642C884.468 380.736 897.511 368.365 908.191 354.19C925.285 331.508 936.336 302.782 931.937 274.718C927.538 246.669 904.719 220.68 876.383 218.605C848.047 216.516 818.663 245.046 825.337 272.644C828.609 261.22 839.437 252.366 851.312 251.509C863.151 250.638 875.161 257.763 880.085 268.585C877.452 272.208 871.797 270.72 867.424 271.742C860.777 273.29 857.405 280.971 857.39 287.766C857.375 294.605 859.602 301.234 859.623 308.073C859.609 314.868 856.341 322.579 849.73 324.247C846.933 324.924 843.984 324.428 841.111 324.668C833.932 325.285 827.807 330.666 824.423 337.024C821.006 343.443 819.876 350.733 818.883 357.888C817.99 364.532 816.511 372.183 810.578 375.28C806.248 377.519 800.878 376.542 796.478 378.512C787.956 382.299 787.385 393.799 783.704 402.382C780.232 410.574 773.236 416.632 767.085 423.095C755.987 434.7 746.759 448.363 741.455 465.214C732.544 478.231 726.695 493.669 724.555 509.797C723.778 513.976 723.922 518.23 723.687 522.424C723.62 526.633 724.11 530.797 724.355 534.96C724.979 538.854 725.599 542.732 726.22 546.595C727.011 550.428 728.041 554.216 728.96 558.004C732.822 571.743 738.755 584.79 746.388 596.47C748.655 607.698 753.303 618.446 760.138 627.63C764.002 632.831 768.612 637.716 770.608 643.879C771.814 647.607 771.996 651.621 773.474 655.243C775.954 661.316 781.633 665.36 786.031 670.215C792.555 677.43 796.491 687.23 795.531 696.896C794.57 706.576 788.274 715.836 779.162 719.218C800.054 729.755 828.536 720.946 839.853 700.473C845.428 690.372 846.366 678.272 843.504 667.133C847.811 669.914 852.585 672.62 857.971 675.04C866.528 678.873 876.416 682.12 887.356 683.999C898.248 685.908 910.123 686.584 922.447 685.788C934.778 685.006 947.568 682.826 960.391 679.294C973.284 675.837 986.038 670.756 998.385 665.901C1010.76 661.045 1022.57 656.792 1033.87 654.612C1045.11 652.508 1056.26 652.342 1065.9 654.687C1075.45 656.957 1083.95 661.767 1088.74 667.855C1091.16 670.891 1092.57 674.093 1092.88 676.979C1093.01 678.482 1093 679.745 1092.63 680.977C1092.28 682.24 1091.68 683.503 1090.88 684.675C1089.21 687.02 1086.78 688.869 1084.27 689.921C1081.75 690.883 1079.21 691.244 1076.98 690.733C1072.41 689.861 1068.66 686.103 1066.78 682.556C1064.8 678.978 1064.24 675.596 1064.07 673.236C1063.89 670.861 1063.97 669.373 1063.24 669.042C1062.67 668.757 1061.23 669.643 1059.93 672.364C1058.64 675.025 1057.69 679.655 1059.1 685.397C1059.81 688.238 1061.12 691.349 1063.38 694.325C1065.64 697.287 1068.93 700.173 1073.36 701.916C1082.31 705.479 1094.23 703.029 1102.28 694.22C1104.27 691.98 1106.03 689.32 1107.28 686.253C1108.57 683.157 1109.11 679.625 1109.09 676.333C1109.05 669.553 1106.54 663.06 1102.91 657.693C1099.32 652.297 1094.3 647.727 1088.92 644.18C1083.48 640.572 1077.34 637.822 1070.89 635.958C1057.93 632.215 1043.99 632.095 1030.26 634.334C1016.51 636.679 1003.43 641.354 990.745 646.314C978.031 651.32 966.35 656.1 954.752 659.482C943.155 662.955 931.74 665.284 920.809 666.472C900.593 668.757 882.238 666.742 867.152 662.323C869.301 662.443 871.441 662.564 873.561 662.699C879.676 662.639 885.704 662.864 891.571 662.323C915.104 660.88 936.389 655.679 954.806 648.9C973.271 642.166 989.007 634.019 1002.03 625.811C1003.67 624.804 1005.28 623.827 1006.86 622.85C1008.39 621.798 1009.89 620.776 1011.37 619.754C1014.29 617.724 1017.1 615.755 1019.79 613.876C1024.98 609.848 1029.69 606.165 1033.79 602.708C1049.25 587.541 1059.71 572.329 1061.8 569.473C1065.33 564.648 1069.03 559.282 1072.67 553.359C1076.34 547.437 1079.97 540.958 1083.17 533.908C1089.55 519.839 1094.66 503.394 1094.79 485.822C1095.06 468.295 1090.43 451.7 1082 439.42C1073.73 427.109 1061.72 419.518 1050.97 415.925C1040.13 412.257 1030.59 412.408 1024.18 413.325C1017.75 414.317 1014.2 415.655 1013.83 414.873C1013.54 414.377 1016.51 411.716 1023.22 409.341C1029.87 407.072 1040.56 405.629 1053.08 408.8C1065.43 411.867 1079.72 419.758 1089.92 433.843C1095.04 440.742 1098.9 448.98 1101.58 457.818C1104.12 466.702 1105.48 476.232 1105.3 485.942C1105.15 505.468 1099.19 523.371 1091.9 538.087C1088.4 545.197 1084.46 551.585 1080.48 557.357C1087.42 551.706 1094.32 546.084 1101.3 540.402C1120.23 525.01 1138.92 509.813 1157.47 494.736C1164.54 483.718 1174.36 468.882 1182.22 451.295C1190.26 433.437 1193.93 416.045 1194.76 403.299C1195.26 396.94 1195.13 391.619 1195.18 388.087C1195.22 384.69 1194.31 383.126 1194.79 382.54C1195.02 382.284 1195.71 382.36 1196.61 383.126C1197.52 383.863 1198.5 385.336 1199.19 387.26C1200.46 391.033 1201.74 396.384 1202.2 403.299C1203.3 417.037 1200.45 436.458 1191.83 455.563C1188.58 462.839 1184.9 469.498 1181.11 475.525C1189.98 468.31 1198.8 461.125 1207.75 454.03C1219.54 444.696 1231.47 435.692 1243.59 427.094C1267.91 410.048 1292.92 394.55 1319.04 382.209C1332.07 376.016 1345.29 370.485 1358.72 365.9C1372.17 361.39 1385.72 357.572 1399.33 354.852C1426.54 349.38 1453.75 347.697 1479.97 349.305C1506.15 350.944 1531.64 355.784 1554.96 364.848C1578.24 373.852 1599.38 386.959 1615.7 404.125C1631.95 421.246 1643.1 441.659 1648.5 462.628C1649.48 466.341 1650.17 470.069 1650.76 473.797C1651.24 474.533 1651.73 475.255 1652.24 476.052C1653.87 478.336 1655.61 480.817 1657.49 483.477C1661.28 488.768 1665.68 494.706 1670.87 500.989C1675.99 507.332 1682.01 513.931 1688.66 520.801C1695.52 527.475 1702.96 534.509 1711.45 541.123C1719.95 547.692 1729.1 554.381 1739.31 560.199C1749.45 566.091 1760.37 571.487 1772 576.057C1783.66 580.491 1795.45 583.873 1807.04 586.308C1818.61 588.864 1830.05 590.006 1840.97 590.713C1851.89 591.389 1862.34 590.953 1872.1 590.292C1881.82 589.375 1890.89 588.112 1899.03 586.354C1907.21 584.685 1914.51 582.656 1920.83 580.626C1923.98 579.559 1926.95 578.627 1929.61 577.65C1932.25 576.598 1934.67 575.636 1936.85 574.764C1941.23 573.081 1944.41 571.337 1946.68 570.345C1948.8 569.338 1949.78 568.872 1950.08 568.721C1949.78 568.872 1948.8 569.353 1946.7 570.375C1944.46 571.412 1941.3 573.231 1936.97 575.065C1934.82 576.012 1932.43 577.064 1929.82 578.206C1927.19 579.304 1924.27 580.356 1921.17 581.573C1914.91 583.903 1907.69 586.308 1899.54 588.473C1891.43 590.713 1882.35 592.546 1872.55 594.11C1862.69 595.417 1852.09 596.575 1840.84 596.62C1829.63 596.65 1817.79 596.259 1805.64 594.425C1793.48 592.667 1780.97 589.931 1768.48 585.978C1756.04 581.889 1744.24 576.778 1733.28 571.006C1722.26 565.309 1712.32 558.56 1703.2 551.751C1694.06 544.911 1686.12 537.486 1678.97 530.316C1671.98 522.95 1665.85 515.75 1660.83 508.745C1657.44 504.146 1654.54 499.696 1651.99 495.457C1651.57 505.363 1649.79 514.983 1646.62 523.882C1640.04 542.461 1628.69 557.478 1616.24 568.902C1603.75 580.401 1589.95 588.323 1576.66 593.764C1563.33 599.13 1550.12 601.851 1538.11 601.716C1526.11 601.671 1515.43 598.634 1507.35 594.155C1499.22 589.736 1493.53 584.144 1489.81 579.138C1486.06 574.103 1484.26 569.608 1483.45 566.557C1482.62 563.49 1482.62 561.852 1482.93 561.777C1483.33 561.657 1484.02 563.1 1485.45 565.745C1486.86 568.391 1489.13 572.239 1493.08 576.418C1496.98 580.596 1502.57 585.151 1510.15 588.563C1517.68 592.02 1527.17 594.065 1537.96 593.523C1548.72 593.057 1560.63 590.036 1572.74 584.535C1584.8 578.988 1597.21 571.202 1608.17 560.364C1619.1 549.616 1628.72 535.862 1633.93 519.613C1639.18 503.439 1639.33 484.785 1634.15 466.491C1628.99 448.198 1618.68 430.235 1604.05 415.414C1589.44 400.608 1570.2 389.034 1548.8 381.157C1527.36 373.19 1503.6 368.981 1478.95 367.764C1476.73 367.659 1474.48 367.599 1472.25 367.538C1516.15 377.038 1549.91 399.405 1565.23 427.665C1581.76 458.224 1576.81 499.832 1551.77 523.972C1538.94 536.313 1514.87 542.085 1505.29 527.054C1498.09 515.765 1507.5 498.163 1520.88 497.877C1500.68 481.388 1469.41 480.275 1448.11 495.307C1426.78 510.309 1417.31 540.146 1426.03 564.708C1412.22 568.09 1407.27 585.692 1409.29 599.762C1412.49 621.993 1426.53 641.925 1445.06 654.597C1463.63 667.269 1486.29 673.056 1508.75 673.567C1562.88 674.844 1616.6 644.27 1643.18 597.086C1645.57 592.862 1647.66 588.488 1649.49 583.963C1652.03 590.592 1655.38 596.846 1659.83 602.512C1674.51 621.122 1705.76 628.577 1721.7 611.02C1736.75 631.163 1753.48 651.696 1776.72 661.286C1799.99 670.876 1831.48 665.119 1842.69 642.557C1872.44 672.289 1926.09 673.176 1956.8 644.436C1971.56 630.682 1980.79 611.862 1995.4 597.958C2014.04 580.22 2046.85 560.74 2086.25 586.218C2065.57 560.409 2020.8 533.367 1988.03 529.008Z" fill="#F5DEB3"/>
<path d="M1368.94 470.142C1350.74 463.801 1330.72 462.733 1311.94 467.114C1345.47 467.479 1366.33 483.623 1373.01 493.061C1363.78 494.913 1358.61 506.866 1362.8 515.303C1367.01 523.753 1378.59 527.107 1387.13 523.064C1395.64 519.062 1400.43 508.88 1399.13 499.551C1397.13 484.894 1382.91 475.037 1368.94 470.142Z" fill="#F5DEB3"/>
<path d="M552.442 456.513C511.744 430.561 461.525 433.513 417.709 417.702C433.525 461.522 430.569 511.73 456.518 552.433C482.973 593.935 535.641 617.266 600.337 600.337C617.277 535.641 593.938 482.963 552.442 456.513Z" fill="#F5DEB3"/>
<path d="M351.257 571.293C334.055 579.533 321.092 598.667 324.795 617.373C328.496 636.08 352.723 648.987 368.408 638.133C376.813 632.307 380.752 622.08 387.055 614.027C399.265 598.427 443.32 579.867 476.789 600.027C456.391 584.347 432.475 573.267 407.324 567.84C388.68 563.827 368.461 563.067 351.257 571.293Z" fill="#F5DEB3"/>
<path d="M617.374 324.795C598.664 321.097 579.527 334.062 571.293 351.258C563.059 368.468 563.822 388.686 567.844 407.321C573.267 432.475 584.349 456.391 600.03 476.796C579.858 443.325 598.427 399.278 614.024 387.06C622.071 380.758 632.312 376.815 638.129 368.411C648.98 352.726 636.084 328.507 617.374 324.795Z" fill="#F5DEB3"/>
<path d="M371.472 678.253C361.809 689.48 354.145 702.453 343.321 712.56C332.499 722.667 317.084 729.72 302.911 725.413C287.197 720.667 277.987 700.973 284.401 685.867C260.144 725.773 297.801 764.333 324.224 769.32C356.611 775.453 383.435 752.307 400.708 733.253C417.98 714.187 431.489 691.413 451.86 675.707C495.463 642.093 583.289 649.067 685.596 745.48C645.12 700.053 597.543 658.093 539.492 639.867C481.441 621.653 411.167 632.147 371.472 678.253Z" fill="#F5DEB3"/>
<path d="M685.865 284.392C700.977 277.984 720.665 287.182 725.423 302.906C729.717 317.08 722.674 332.493 712.565 343.315C702.459 354.137 689.48 361.8 678.257 371.47C632.147 411.156 621.649 481.432 639.87 539.484C658.091 597.536 700.059 645.121 745.486 685.589C649.065 583.289 642.091 495.458 675.71 451.86C691.417 431.486 714.194 417.977 733.253 400.703C752.313 383.429 775.453 356.603 769.327 324.211C764.329 297.798 725.783 260.135 685.865 284.392Z" fill="#F5DEB3"/>
</svg>
