<svg id="visual" viewBox="0 0 900 600" width="900" height="600" xmlns="http://www.w3.org/2000/svg" xmlns:xlink="http://www.w3.org/1999/xlink" version="1.1"><path d="M0 388L69 379L138 453L208 317L277 307L346 429L415 412L485 392L554 444L623 442L692 324L762 358L831 390L900 368L900 0L831 0L762 0L692 0L623 0L554 0L485 0L415 0L346 0L277 0L208 0L138 0L69 0L0 0Z" fill="#f5deb3"></path><path d="M0 287L69 357L138 373L208 330L277 399L346 311L415 360L485 403L554 323L623 276L692 353L762 284L831 355L900 286L900 0L831 0L762 0L692 0L623 0L554 0L485 0L415 0L346 0L277 0L208 0L138 0L69 0L0 0Z" fill="#e8bf9f"></path><path d="M0 245L69 244L138 333L208 362L277 299L346 300L415 345L485 314L554 284L623 323L692 327L762 295L831 280L900 256L900 0L831 0L762 0L692 0L623 0L554 0L485 0L415 0L346 0L277 0L208 0L138 0L69 0L0 0Z" fill="#d7a191"></path><path d="M0 313L69 280L138 233L208 272L277 299L346 220L415 198L485 290L554 220L623 201L692 315L762 297L831 268L900 209L900 0L831 0L762 0L692 0L623 0L554 0L485 0L415 0L346 0L277 0L208 0L138 0L69 0L0 0Z" fill="#c08687"></path><path d="M0 269L69 216L138 170L208 235L277 229L346 177L415 261L485 221L554 264L623 180L692 259L762 242L831 199L900 188L900 0L831 0L762 0L692 0L623 0L554 0L485 0L415 0L346 0L277 0L208 0L138 0L69 0L0 0Z" fill="#a46e7f"></path><path d="M0 164L69 138L138 183L208 127L277 144L346 156L415 199L485 215L554 154L623 129L692 156L762 169L831 164L900 135L900 0L831 0L762 0L692 0L623 0L554 0L485 0L415 0L346 0L277 0L208 0L138 0L69 0L0 0Z" fill="#835a76"></path><path d="M0 114L69 155L138 94L208 163L277 153L346 102L415 117L485 163L554 111L623 126L692 157L762 124L831 139L900 107L900 0L831 0L762 0L692 0L623 0L554 0L485 0L415 0L346 0L277 0L208 0L138 0L69 0L0 0Z" fill="#5f486b"></path><path d="M0 68L69 85L138 66L208 83L277 124L346 124L415 87L485 82L554 69L623 87L692 75L762 78L831 71L900 63L900 0L831 0L762 0L692 0L623 0L554 0L485 0L415 0L346 0L277 0L208 0L138 0L69 0L0 0Z" fill="#37385c"></path><path d="M0 46L69 63L138 73L208 67L277 30L346 52L415 66L485 44L554 45L623 52L692 42L762 66L831 28L900 30L900 0L831 0L762 0L692 0L623 0L554 0L485 0L415 0L346 0L277 0L208 0L138 0L69 0L0 0Z" fill="#032949"></path></svg>